<?xml version="1.0" encoding="iso-8859-1"?>
<!-- Generator: Adobe Illustrator 19.0.0, SVG Export Plug-In . SVG Version: 6.00 Build 0)  -->
<svg version="1.1" id="Layer_1" xmlns="http://www.w3.org/2000/svg" xmlns:xlink="http://www.w3.org/1999/xlink" x="0px" y="0px"
	 viewBox="0 0 512.005 512.005" style="enable-background:new 0 0 512.005 512.005;" xml:space="preserve">
<path style="fill:#FF7F4B;" d="M155.617,83.93c-4.165-12.818-16.057-20.96-28.843-20.958c-3.949-12.161-15.367-20.955-28.845-20.955
	s-24.895,8.794-28.845,20.955c-12.786-0.002-24.678,8.14-28.843,20.958s0.671,26.395,11.016,33.909
	c-3.953,12.16,0.115,25.986,11.019,33.907c10.904,7.922,25.31,7.519,35.653,0.002c10.343,7.517,24.749,7.92,35.653-0.002
	c10.903-7.922,14.972-21.748,11.019-33.907C154.946,110.325,159.782,96.748,155.617,83.93z"/>
<path style="fill:#FD5219;" d="M155.617,83.93c-4.165-12.818-16.057-20.96-28.843-20.958c-3.949-12.161-15.367-20.955-28.845-20.955
	c0,17.682,0,88.537,0,109.73c10.343,7.517,24.749,7.92,35.653-0.002c10.903-7.922,14.972-21.748,11.019-33.907
	C154.946,110.325,159.782,96.748,155.617,83.93z"/>
<circle style="fill:#FBDA35;" cx="97.931" cy="101.185" r="15"/>
<path style="fill:#F7BA35;" d="M112.929,101.185c0,8.284-6.716,15-15,15c0-11.581,0-16.407,0-30
	C106.214,86.185,112.929,92.901,112.929,101.185z"/>
<path style="fill:#FF7F4B;" d="M481.596,382.498c-4.165-12.818-16.057-20.96-28.843-20.958
	c-3.949-12.161-15.367-20.955-28.845-20.955s-24.895,8.794-28.845,20.955c-12.786-0.002-24.678,8.14-28.843,20.958
	c-4.165,12.818,0.671,26.395,11.016,33.908c-3.953,12.16,0.115,25.986,11.019,33.907c10.904,7.922,25.31,7.519,35.653,0.002
	c10.343,7.517,24.749,7.92,35.653-0.002c10.903-7.922,14.972-21.748,11.019-33.907C480.926,408.892,485.761,395.316,481.596,382.498
	z"/>
<path style="fill:#FD5219;" d="M481.596,382.498c-4.165-12.818-16.057-20.96-28.843-20.958
	c-3.949-12.161-15.367-20.955-28.845-20.955c0,17.682,0,88.537,0,109.73c10.343,7.517,24.749,7.92,35.653-0.002
	c10.903-7.922,14.972-21.748,11.019-33.907C480.926,408.892,485.761,395.316,481.596,382.498z"/>
<circle style="fill:#FBDA35;" cx="423.911" cy="399.755" r="15"/>
<path style="fill:#F7BA35;" d="M438.909,399.753c0,8.284-6.716,15-15,15c0-11.581,0-16.407,0-30
	C432.193,384.753,438.909,391.468,438.909,399.753z"/>
<rect x="298.418" y="92.509" transform="matrix(-0.7071 -0.7071 0.7071 -0.7071 441.2943 541.3174)" style="fill:#804D00;" width="68.679" height="173.508"/>
<rect x="327.728" y="104.648" transform="matrix(-0.7071 -0.7071 0.7071 -0.7071 453.4354 570.6232)" style="fill:#4C3011;" width="34.34" height="173.508"/>
<g>
	
		<rect x="366.326" y="13.68" transform="matrix(-0.7071 -0.7071 0.7071 -0.7071 648.7109 326.4289)" style="fill:#804D00;" width="51.269" height="30.365"/>
	
		<rect x="326.725" y="54.463" transform="matrix(0.7071 0.7071 -0.7071 0.7071 153.277 -230.7518)" style="fill:#804D00;" width="56.911" height="30.365"/>
</g>
<g>
	
		<rect x="457.507" y="104.863" transform="matrix(0.7071 0.7071 -0.7071 0.7071 226.3937 -306.4723)" style="fill:#4C3011;" width="51.269" height="30.365"/>
	
		<rect x="413.896" y="141.642" transform="matrix(-0.7071 -0.7071 0.7071 -0.7071 644.2508 580.5055)" style="fill:#4C3011;" width="56.911" height="30.365"/>
</g>
<path style="fill:#BA7400;" d="M253.458,399.339c0.694-7.559,1.293-14.088,3.518-16.312c5.599-5.6,9.326-7.017,14.967-9.162
	c7.418-2.821,16.652-6.333,28.458-18.139c21.651-21.651,28.606-48.664,20.112-78.118c-7.923-27.471-26.896-47.965-32.523-53.592
	c-5.626-5.627-26.119-24.601-53.591-32.523c-29.453-8.494-56.466-1.54-78.118,20.113c-11.806,11.807-15.317,21.039-18.138,28.458
	c-2.145,5.641-3.562,9.368-9.161,14.967c-2.225,2.225-8.753,2.824-16.312,3.517c-19.045,1.748-47.826,4.39-80.127,36.691
	C7.776,320.006-3.198,350.765,0.807,384.191c3.532,29.476,18.941,59.173,43.388,83.62s54.144,39.856,83.62,43.388
	c4.494,0.539,8.937,0.806,13.327,0.806c28.258,0,54.188-11.104,75.624-32.541C249.068,447.164,251.71,418.383,253.458,399.339z"/>
<g>
	<path style="fill:#804D00;" d="M253.458,399.339c0.694-7.559,1.293-14.088,3.518-16.312c5.599-5.6,9.326-7.017,14.967-9.162
		c7.418-2.821,16.652-6.333,28.458-18.139c21.651-21.651,28.606-48.664,20.112-78.118c-7.923-27.471-26.896-47.965-32.523-53.592
		C259.075,252.932,61.536,450.471,44.196,467.811c24.447,24.447,54.144,39.856,83.62,43.388c4.494,0.539,8.937,0.806,13.327,0.806
		c28.258,0,54.188-11.104,75.624-32.541C249.068,447.164,251.71,418.383,253.458,399.339z"/>
	<path style="fill:#804D00;" d="M237.341,274.666c-17.034-17.034-44.75-17.035-61.784,0c-17.034,17.034-17.034,44.75,0,61.784
		c8.517,8.517,19.704,12.776,30.892,12.776s22.375-4.259,30.892-12.776h0.001C254.375,319.416,254.374,291.7,237.341,274.666z"/>
</g>
<path style="fill:#4C3011;" d="M237.341,274.666c-21.99,21.99-44.629,44.629-61.784,61.784c8.517,8.517,19.704,12.776,30.892,12.776
	s22.375-4.259,30.892-12.776h0.001C254.375,319.416,254.374,291.7,237.341,274.666z"/>
<polygon style="fill:#BA7400;" points="413.782,15.03 339,105.763 406.243,173.007 496.976,98.224 "/>
<polygon style="fill:#804D00;" points="455.379,56.627 372.621,139.385 406.243,173.007 496.976,98.224 "/>
<rect x="98.206" y="357.973" transform="matrix(-0.7071 0.7071 -0.7071 -0.7071 475.4273 600.296)" style="fill:#FD9702;" width="30.365" height="81.279"/>
<rect x="112.571" y="392.655" transform="matrix(-0.7071 0.7071 -0.7071 -0.7071 510.1059 614.6575)" style="fill:#BA7400;" width="30.365" height="40.64"/>
<g>
</g>
<g>
</g>
<g>
</g>
<g>
</g>
<g>
</g>
<g>
</g>
<g>
</g>
<g>
</g>
<g>
</g>
<g>
</g>
<g>
</g>
<g>
</g>
<g>
</g>
<g>
</g>
<g>
</g>
</svg>
